<svg xmlns="http://www.w3.org/2000/svg" viewBox="0 0 900 340" width="900" height="340">
<defs>
  <radialGradient id="ng" cx="50%" cy="50%" r="50%">
    <stop offset="0%" stop-color="#ffffff" stop-opacity="0.9"/>
    <stop offset="100%" stop-color="#7c3aed" stop-opacity="0"/>
  </radialGradient>
  <filter id="gn" x="-60%" y="-60%" width="220%" height="220%">
    <feGaussianBlur stdDeviation="3.5" result="b"/>
    <feMerge><feMergeNode in="b"/><feMergeNode in="SourceGraphic"/></feMerge>
  </filter>
  <filter id="gh" x="-80%" y="-80%" width="260%" height="260%">
    <feGaussianBlur stdDeviation="6" result="b"/>
    <feMerge><feMergeNode in="b"/><feMergeNode in="SourceGraphic"/></feMerge>
  </filter>
  <linearGradient id="connGrad" x1="0" y1="0" x2="1" y2="0">
    <stop offset="0%" stop-color="#8b5cf6"/>
    <stop offset="100%" stop-color="#22d3ee"/>
  </linearGradient>
</defs>
<rect width="900" height="340" rx="14" fill="#07050f"/>
<pattern id="dots" x="0" y="0" width="28" height="28" patternUnits="userSpaceOnUse">
  <circle cx="1" cy="1" r="0.7" fill="#ffffff" opacity="0.035"/>
</pattern>
<rect width="900" height="340" rx="14" fill="url(#dots)"/>
<text x="450" y="32" font-family="'Segoe UI', system-ui, sans-serif" font-size="14" font-weight="600" letter-spacing="4" fill="#a78bfa" text-anchor="middle" opacity="0.85">NNN — NEURAL NODE NETWORK</text>
<text x="450" y="52" font-family="'Segoe UI', system-ui, sans-serif" font-size="11" letter-spacing="1.5" fill="#4b5563" text-anchor="middle">Serenity's long-term memory — every conversation, encoded and retrievable across all sessions</text>
<line x1="100.0" y1="62.0" x2="262.0" y2="62.0" stroke="#7c3aed" stroke-width="0.5" opacity="0.09"/>
<line x1="100.0" y1="62.0" x2="262.0" y2="109.2" stroke="#7c3aed" stroke-width="0.5" opacity="0.09"/>
<line x1="100.0" y1="62.0" x2="262.0" y2="156.4" stroke="#7c3aed" stroke-width="0.5" opacity="0.09"/>
<line x1="100.0" y1="62.0" x2="262.0" y2="203.6" stroke="#7c3aed" stroke-width="0.5" opacity="0.09"/>
<line x1="100.0" y1="62.0" x2="262.0" y2="250.8" stroke="#7c3aed" stroke-width="0.5" opacity="0.09"/>
<line x1="100.0" y1="62.0" x2="262.0" y2="298.0" stroke="#7c3aed" stroke-width="0.5" opacity="0.09"/>
<line x1="100.0" y1="121.0" x2="262.0" y2="62.0" stroke="#7c3aed" stroke-width="0.5" opacity="0.09"/>
<line x1="100.0" y1="121.0" x2="262.0" y2="109.2" stroke="#7c3aed" stroke-width="0.5" opacity="0.09"/>
<line x1="100.0" y1="121.0" x2="262.0" y2="156.4" stroke="#7c3aed" stroke-width="0.5" opacity="0.09"/>
<line x1="100.0" y1="121.0" x2="262.0" y2="203.6" stroke="#7c3aed" stroke-width="0.5" opacity="0.09"/>
<line x1="100.0" y1="121.0" x2="262.0" y2="250.8" stroke="#7c3aed" stroke-width="0.5" opacity="0.09"/>
<line x1="100.0" y1="121.0" x2="262.0" y2="298.0" stroke="#7c3aed" stroke-width="0.5" opacity="0.09"/>
<line x1="100.0" y1="180.0" x2="262.0" y2="62.0" stroke="#7c3aed" stroke-width="0.5" opacity="0.09"/>
<line x1="100.0" y1="180.0" x2="262.0" y2="109.2" stroke="#7c3aed" stroke-width="0.5" opacity="0.09"/>
<line x1="100.0" y1="180.0" x2="262.0" y2="156.4" stroke="#7c3aed" stroke-width="0.5" opacity="0.09"/>
<line x1="100.0" y1="180.0" x2="262.0" y2="203.6" stroke="#7c3aed" stroke-width="0.5" opacity="0.09"/>
<line x1="100.0" y1="180.0" x2="262.0" y2="250.8" stroke="#7c3aed" stroke-width="0.5" opacity="0.09"/>
<line x1="100.0" y1="180.0" x2="262.0" y2="298.0" stroke="#7c3aed" stroke-width="0.5" opacity="0.09"/>
<line x1="100.0" y1="239.0" x2="262.0" y2="62.0" stroke="#7c3aed" stroke-width="0.5" opacity="0.09"/>
<line x1="100.0" y1="239.0" x2="262.0" y2="109.2" stroke="#7c3aed" stroke-width="0.5" opacity="0.09"/>
<line x1="100.0" y1="239.0" x2="262.0" y2="156.4" stroke="#7c3aed" stroke-width="0.5" opacity="0.09"/>
<line x1="100.0" y1="239.0" x2="262.0" y2="203.6" stroke="#7c3aed" stroke-width="0.5" opacity="0.09"/>
<line x1="100.0" y1="239.0" x2="262.0" y2="250.8" stroke="#7c3aed" stroke-width="0.5" opacity="0.09"/>
<line x1="100.0" y1="239.0" x2="262.0" y2="298.0" stroke="#7c3aed" stroke-width="0.5" opacity="0.09"/>
<line x1="100.0" y1="298.0" x2="262.0" y2="62.0" stroke="#7c3aed" stroke-width="0.5" opacity="0.09"/>
<line x1="100.0" y1="298.0" x2="262.0" y2="109.2" stroke="#7c3aed" stroke-width="0.5" opacity="0.09"/>
<line x1="100.0" y1="298.0" x2="262.0" y2="156.4" stroke="#7c3aed" stroke-width="0.5" opacity="0.09"/>
<line x1="100.0" y1="298.0" x2="262.0" y2="203.6" stroke="#7c3aed" stroke-width="0.5" opacity="0.09"/>
<line x1="100.0" y1="298.0" x2="262.0" y2="250.8" stroke="#7c3aed" stroke-width="0.5" opacity="0.09"/>
<line x1="100.0" y1="298.0" x2="262.0" y2="298.0" stroke="#7c3aed" stroke-width="0.5" opacity="0.09"/>
<line x1="262.0" y1="62.0" x2="450.0" y2="62.0" stroke="#7c3aed" stroke-width="0.5" opacity="0.09"/>
<line x1="262.0" y1="62.0" x2="450.0" y2="101.3" stroke="#7c3aed" stroke-width="0.5" opacity="0.09"/>
<line x1="262.0" y1="62.0" x2="450.0" y2="140.7" stroke="#7c3aed" stroke-width="0.5" opacity="0.09"/>
<line x1="262.0" y1="62.0" x2="450.0" y2="180.0" stroke="#7c3aed" stroke-width="0.5" opacity="0.09"/>
<line x1="262.0" y1="62.0" x2="450.0" y2="219.3" stroke="#7c3aed" stroke-width="0.5" opacity="0.09"/>
<line x1="262.0" y1="62.0" x2="450.0" y2="258.7" stroke="#7c3aed" stroke-width="0.5" opacity="0.09"/>
<line x1="262.0" y1="62.0" x2="450.0" y2="298.0" stroke="#7c3aed" stroke-width="0.5" opacity="0.09"/>
<line x1="262.0" y1="109.2" x2="450.0" y2="62.0" stroke="#7c3aed" stroke-width="0.5" opacity="0.09"/>
<line x1="262.0" y1="109.2" x2="450.0" y2="101.3" stroke="#7c3aed" stroke-width="0.5" opacity="0.09"/>
<line x1="262.0" y1="109.2" x2="450.0" y2="140.7" stroke="#7c3aed" stroke-width="0.5" opacity="0.09"/>
<line x1="262.0" y1="109.2" x2="450.0" y2="180.0" stroke="#7c3aed" stroke-width="0.5" opacity="0.09"/>
<line x1="262.0" y1="109.2" x2="450.0" y2="219.3" stroke="#7c3aed" stroke-width="0.5" opacity="0.09"/>
<line x1="262.0" y1="109.2" x2="450.0" y2="258.7" stroke="#7c3aed" stroke-width="0.5" opacity="0.09"/>
<line x1="262.0" y1="109.2" x2="450.0" y2="298.0" stroke="#7c3aed" stroke-width="0.5" opacity="0.09"/>
<line x1="262.0" y1="156.4" x2="450.0" y2="62.0" stroke="#7c3aed" stroke-width="0.5" opacity="0.09"/>
<line x1="262.0" y1="156.4" x2="450.0" y2="101.3" stroke="#7c3aed" stroke-width="0.5" opacity="0.09"/>
<line x1="262.0" y1="156.4" x2="450.0" y2="140.7" stroke="#7c3aed" stroke-width="0.5" opacity="0.09"/>
<line x1="262.0" y1="156.4" x2="450.0" y2="180.0" stroke="#7c3aed" stroke-width="0.5" opacity="0.09"/>
<line x1="262.0" y1="156.4" x2="450.0" y2="219.3" stroke="#7c3aed" stroke-width="0.5" opacity="0.09"/>
<line x1="262.0" y1="156.4" x2="450.0" y2="258.7" stroke="#7c3aed" stroke-width="0.5" opacity="0.09"/>
<line x1="262.0" y1="156.4" x2="450.0" y2="298.0" stroke="#7c3aed" stroke-width="0.5" opacity="0.09"/>
<line x1="262.0" y1="203.6" x2="450.0" y2="62.0" stroke="#7c3aed" stroke-width="0.5" opacity="0.09"/>
<line x1="262.0" y1="203.6" x2="450.0" y2="101.3" stroke="#7c3aed" stroke-width="0.5" opacity="0.09"/>
<line x1="262.0" y1="203.6" x2="450.0" y2="140.7" stroke="#7c3aed" stroke-width="0.5" opacity="0.09"/>
<line x1="262.0" y1="203.6" x2="450.0" y2="180.0" stroke="#7c3aed" stroke-width="0.5" opacity="0.09"/>
<line x1="262.0" y1="203.6" x2="450.0" y2="219.3" stroke="#7c3aed" stroke-width="0.5" opacity="0.09"/>
<line x1="262.0" y1="203.6" x2="450.0" y2="258.7" stroke="#7c3aed" stroke-width="0.5" opacity="0.09"/>
<line x1="262.0" y1="203.6" x2="450.0" y2="298.0" stroke="#7c3aed" stroke-width="0.5" opacity="0.09"/>
<line x1="262.0" y1="250.8" x2="450.0" y2="62.0" stroke="#7c3aed" stroke-width="0.5" opacity="0.09"/>
<line x1="262.0" y1="250.8" x2="450.0" y2="101.3" stroke="#7c3aed" stroke-width="0.5" opacity="0.09"/>
<line x1="262.0" y1="250.8" x2="450.0" y2="140.7" stroke="#7c3aed" stroke-width="0.5" opacity="0.09"/>
<line x1="262.0" y1="250.8" x2="450.0" y2="180.0" stroke="#7c3aed" stroke-width="0.5" opacity="0.09"/>
<line x1="262.0" y1="250.8" x2="450.0" y2="219.3" stroke="#7c3aed" stroke-width="0.5" opacity="0.09"/>
<line x1="262.0" y1="250.8" x2="450.0" y2="258.7" stroke="#7c3aed" stroke-width="0.5" opacity="0.09"/>
<line x1="262.0" y1="250.8" x2="450.0" y2="298.0" stroke="#7c3aed" stroke-width="0.5" opacity="0.09"/>
<line x1="262.0" y1="298.0" x2="450.0" y2="62.0" stroke="#7c3aed" stroke-width="0.5" opacity="0.09"/>
<line x1="262.0" y1="298.0" x2="450.0" y2="101.3" stroke="#7c3aed" stroke-width="0.5" opacity="0.09"/>
<line x1="262.0" y1="298.0" x2="450.0" y2="140.7" stroke="#7c3aed" stroke-width="0.5" opacity="0.09"/>
<line x1="262.0" y1="298.0" x2="450.0" y2="180.0" stroke="#7c3aed" stroke-width="0.5" opacity="0.09"/>
<line x1="262.0" y1="298.0" x2="450.0" y2="219.3" stroke="#7c3aed" stroke-width="0.5" opacity="0.09"/>
<line x1="262.0" y1="298.0" x2="450.0" y2="258.7" stroke="#7c3aed" stroke-width="0.5" opacity="0.09"/>
<line x1="262.0" y1="298.0" x2="450.0" y2="298.0" stroke="#7c3aed" stroke-width="0.5" opacity="0.09"/>
<line x1="450.0" y1="62.0" x2="638.0" y2="62.0" stroke="#7c3aed" stroke-width="0.5" opacity="0.09"/>
<line x1="450.0" y1="62.0" x2="638.0" y2="109.2" stroke="#7c3aed" stroke-width="0.5" opacity="0.09"/>
<line x1="450.0" y1="62.0" x2="638.0" y2="156.4" stroke="#7c3aed" stroke-width="0.5" opacity="0.09"/>
<line x1="450.0" y1="62.0" x2="638.0" y2="203.6" stroke="#7c3aed" stroke-width="0.5" opacity="0.09"/>
<line x1="450.0" y1="62.0" x2="638.0" y2="250.8" stroke="#7c3aed" stroke-width="0.5" opacity="0.09"/>
<line x1="450.0" y1="62.0" x2="638.0" y2="298.0" stroke="#7c3aed" stroke-width="0.5" opacity="0.09"/>
<line x1="450.0" y1="101.3" x2="638.0" y2="62.0" stroke="#7c3aed" stroke-width="0.5" opacity="0.09"/>
<line x1="450.0" y1="101.3" x2="638.0" y2="109.2" stroke="#7c3aed" stroke-width="0.5" opacity="0.09"/>
<line x1="450.0" y1="101.3" x2="638.0" y2="156.4" stroke="#7c3aed" stroke-width="0.5" opacity="0.09"/>
<line x1="450.0" y1="101.3" x2="638.0" y2="203.6" stroke="#7c3aed" stroke-width="0.5" opacity="0.09"/>
<line x1="450.0" y1="101.3" x2="638.0" y2="250.8" stroke="#7c3aed" stroke-width="0.5" opacity="0.09"/>
<line x1="450.0" y1="101.3" x2="638.0" y2="298.0" stroke="#7c3aed" stroke-width="0.5" opacity="0.09"/>
<line x1="450.0" y1="140.7" x2="638.0" y2="62.0" stroke="#7c3aed" stroke-width="0.5" opacity="0.09"/>
<line x1="450.0" y1="140.7" x2="638.0" y2="109.2" stroke="#7c3aed" stroke-width="0.5" opacity="0.09"/>
<line x1="450.0" y1="140.7" x2="638.0" y2="156.4" stroke="#7c3aed" stroke-width="0.5" opacity="0.09"/>
<line x1="450.0" y1="140.7" x2="638.0" y2="203.6" stroke="#7c3aed" stroke-width="0.5" opacity="0.09"/>
<line x1="450.0" y1="140.7" x2="638.0" y2="250.8" stroke="#7c3aed" stroke-width="0.5" opacity="0.09"/>
<line x1="450.0" y1="140.7" x2="638.0" y2="298.0" stroke="#7c3aed" stroke-width="0.5" opacity="0.09"/>
<line x1="450.0" y1="180.0" x2="638.0" y2="62.0" stroke="#7c3aed" stroke-width="0.5" opacity="0.09"/>
<line x1="450.0" y1="180.0" x2="638.0" y2="109.2" stroke="#7c3aed" stroke-width="0.5" opacity="0.09"/>
<line x1="450.0" y1="180.0" x2="638.0" y2="156.4" stroke="#7c3aed" stroke-width="0.5" opacity="0.09"/>
<line x1="450.0" y1="180.0" x2="638.0" y2="203.6" stroke="#7c3aed" stroke-width="0.5" opacity="0.09"/>
<line x1="450.0" y1="180.0" x2="638.0" y2="250.8" stroke="#7c3aed" stroke-width="0.5" opacity="0.09"/>
<line x1="450.0" y1="180.0" x2="638.0" y2="298.0" stroke="#7c3aed" stroke-width="0.5" opacity="0.09"/>
<line x1="450.0" y1="219.3" x2="638.0" y2="62.0" stroke="#7c3aed" stroke-width="0.5" opacity="0.09"/>
<line x1="450.0" y1="219.3" x2="638.0" y2="109.2" stroke="#7c3aed" stroke-width="0.5" opacity="0.09"/>
<line x1="450.0" y1="219.3" x2="638.0" y2="156.4" stroke="#7c3aed" stroke-width="0.5" opacity="0.09"/>
<line x1="450.0" y1="219.3" x2="638.0" y2="203.6" stroke="#7c3aed" stroke-width="0.5" opacity="0.09"/>
<line x1="450.0" y1="219.3" x2="638.0" y2="250.8" stroke="#7c3aed" stroke-width="0.5" opacity="0.09"/>
<line x1="450.0" y1="219.3" x2="638.0" y2="298.0" stroke="#7c3aed" stroke-width="0.5" opacity="0.09"/>
<line x1="450.0" y1="258.7" x2="638.0" y2="62.0" stroke="#7c3aed" stroke-width="0.5" opacity="0.09"/>
<line x1="450.0" y1="258.7" x2="638.0" y2="109.2" stroke="#7c3aed" stroke-width="0.5" opacity="0.09"/>
<line x1="450.0" y1="258.7" x2="638.0" y2="156.4" stroke="#7c3aed" stroke-width="0.5" opacity="0.09"/>
<line x1="450.0" y1="258.7" x2="638.0" y2="203.6" stroke="#7c3aed" stroke-width="0.5" opacity="0.09"/>
<line x1="450.0" y1="258.7" x2="638.0" y2="250.8" stroke="#7c3aed" stroke-width="0.5" opacity="0.09"/>
<line x1="450.0" y1="258.7" x2="638.0" y2="298.0" stroke="#7c3aed" stroke-width="0.5" opacity="0.09"/>
<line x1="450.0" y1="298.0" x2="638.0" y2="62.0" stroke="#7c3aed" stroke-width="0.5" opacity="0.09"/>
<line x1="450.0" y1="298.0" x2="638.0" y2="109.2" stroke="#7c3aed" stroke-width="0.5" opacity="0.09"/>
<line x1="450.0" y1="298.0" x2="638.0" y2="156.4" stroke="#7c3aed" stroke-width="0.5" opacity="0.09"/>
<line x1="450.0" y1="298.0" x2="638.0" y2="203.6" stroke="#7c3aed" stroke-width="0.5" opacity="0.09"/>
<line x1="450.0" y1="298.0" x2="638.0" y2="250.8" stroke="#7c3aed" stroke-width="0.5" opacity="0.09"/>
<line x1="450.0" y1="298.0" x2="638.0" y2="298.0" stroke="#7c3aed" stroke-width="0.5" opacity="0.09"/>
<line x1="638.0" y1="62.0" x2="800.0" y2="62.0" stroke="#7c3aed" stroke-width="0.5" opacity="0.09"/>
<line x1="638.0" y1="62.0" x2="800.0" y2="140.7" stroke="#7c3aed" stroke-width="0.5" opacity="0.09"/>
<line x1="638.0" y1="62.0" x2="800.0" y2="219.3" stroke="#7c3aed" stroke-width="0.5" opacity="0.09"/>
<line x1="638.0" y1="62.0" x2="800.0" y2="298.0" stroke="#7c3aed" stroke-width="0.5" opacity="0.09"/>
<line x1="638.0" y1="109.2" x2="800.0" y2="62.0" stroke="#7c3aed" stroke-width="0.5" opacity="0.09"/>
<line x1="638.0" y1="109.2" x2="800.0" y2="140.7" stroke="#7c3aed" stroke-width="0.5" opacity="0.09"/>
<line x1="638.0" y1="109.2" x2="800.0" y2="219.3" stroke="#7c3aed" stroke-width="0.5" opacity="0.09"/>
<line x1="638.0" y1="109.2" x2="800.0" y2="298.0" stroke="#7c3aed" stroke-width="0.5" opacity="0.09"/>
<line x1="638.0" y1="156.4" x2="800.0" y2="62.0" stroke="#7c3aed" stroke-width="0.5" opacity="0.09"/>
<line x1="638.0" y1="156.4" x2="800.0" y2="140.7" stroke="#7c3aed" stroke-width="0.5" opacity="0.09"/>
<line x1="638.0" y1="156.4" x2="800.0" y2="219.3" stroke="#7c3aed" stroke-width="0.5" opacity="0.09"/>
<line x1="638.0" y1="156.4" x2="800.0" y2="298.0" stroke="#7c3aed" stroke-width="0.5" opacity="0.09"/>
<line x1="638.0" y1="203.6" x2="800.0" y2="62.0" stroke="#7c3aed" stroke-width="0.5" opacity="0.09"/>
<line x1="638.0" y1="203.6" x2="800.0" y2="140.7" stroke="#7c3aed" stroke-width="0.5" opacity="0.09"/>
<line x1="638.0" y1="203.6" x2="800.0" y2="219.3" stroke="#7c3aed" stroke-width="0.5" opacity="0.09"/>
<line x1="638.0" y1="203.6" x2="800.0" y2="298.0" stroke="#7c3aed" stroke-width="0.5" opacity="0.09"/>
<line x1="638.0" y1="250.8" x2="800.0" y2="62.0" stroke="#7c3aed" stroke-width="0.5" opacity="0.09"/>
<line x1="638.0" y1="250.8" x2="800.0" y2="140.7" stroke="#7c3aed" stroke-width="0.5" opacity="0.09"/>
<line x1="638.0" y1="250.8" x2="800.0" y2="219.3" stroke="#7c3aed" stroke-width="0.5" opacity="0.09"/>
<line x1="638.0" y1="250.8" x2="800.0" y2="298.0" stroke="#7c3aed" stroke-width="0.5" opacity="0.09"/>
<line x1="638.0" y1="298.0" x2="800.0" y2="62.0" stroke="#7c3aed" stroke-width="0.5" opacity="0.09"/>
<line x1="638.0" y1="298.0" x2="800.0" y2="140.7" stroke="#7c3aed" stroke-width="0.5" opacity="0.09"/>
<line x1="638.0" y1="298.0" x2="800.0" y2="219.3" stroke="#7c3aed" stroke-width="0.5" opacity="0.09"/>
<line x1="638.0" y1="298.0" x2="800.0" y2="298.0" stroke="#7c3aed" stroke-width="0.5" opacity="0.09"/>
<line x1="100.0" y1="180.0" x2="262.0" y2="203.6" stroke="url(#connGrad)" stroke-width="2" opacity="0.75"/>
<line x1="262.0" y1="203.6" x2="450.0" y2="219.3" stroke="url(#connGrad)" stroke-width="2" opacity="0.75"/>
<line x1="450.0" y1="219.3" x2="638.0" y2="203.6" stroke="url(#connGrad)" stroke-width="2" opacity="0.75"/>
<line x1="638.0" y1="203.6" x2="800.0" y2="219.3" stroke="url(#connGrad)" stroke-width="2" opacity="0.75"/>
<circle cx="100.0" cy="62.0" r="7" fill="#a855f7" opacity="0.55" filter="url(#gn)"/>
<circle cx="100.0" cy="121.0" r="7" fill="#a855f7" opacity="0.55" filter="url(#gn)"/>
<circle cx="100.0" cy="180.0" r="16" fill="#a855f7" opacity="0.12" filter="url(#gh)"/>
<circle cx="100.0" cy="180.0" r="9" fill="#a855f7" opacity="0.95" filter="url(#gn)"/>
<circle cx="100.0" cy="180.0" r="4" fill="#ffffff" opacity="0.8"/>
<circle cx="100.0" cy="239.0" r="7" fill="#a855f7" opacity="0.55" filter="url(#gn)"/>
<circle cx="100.0" cy="298.0" r="7" fill="#a855f7" opacity="0.55" filter="url(#gn)"/>
<circle cx="262.0" cy="62.0" r="7" fill="#8b5cf6" opacity="0.55" filter="url(#gn)"/>
<circle cx="262.0" cy="109.2" r="7" fill="#8b5cf6" opacity="0.55" filter="url(#gn)"/>
<circle cx="262.0" cy="156.4" r="7" fill="#8b5cf6" opacity="0.55" filter="url(#gn)"/>
<circle cx="262.0" cy="203.6" r="16" fill="#8b5cf6" opacity="0.12" filter="url(#gh)"/>
<circle cx="262.0" cy="203.6" r="9" fill="#8b5cf6" opacity="0.95" filter="url(#gn)"/>
<circle cx="262.0" cy="203.6" r="4" fill="#ffffff" opacity="0.8"/>
<circle cx="262.0" cy="250.8" r="7" fill="#8b5cf6" opacity="0.55" filter="url(#gn)"/>
<circle cx="262.0" cy="298.0" r="7" fill="#8b5cf6" opacity="0.55" filter="url(#gn)"/>
<circle cx="450.0" cy="62.0" r="7" fill="#7c3aed" opacity="0.55" filter="url(#gn)"/>
<circle cx="450.0" cy="101.3" r="7" fill="#7c3aed" opacity="0.55" filter="url(#gn)"/>
<circle cx="450.0" cy="140.7" r="7" fill="#7c3aed" opacity="0.55" filter="url(#gn)"/>
<circle cx="450.0" cy="180.0" r="7" fill="#7c3aed" opacity="0.55" filter="url(#gn)"/>
<circle cx="450.0" cy="219.3" r="16" fill="#7c3aed" opacity="0.12" filter="url(#gh)"/>
<circle cx="450.0" cy="219.3" r="9" fill="#7c3aed" opacity="0.95" filter="url(#gn)"/>
<circle cx="450.0" cy="219.3" r="4" fill="#ffffff" opacity="0.8"/>
<circle cx="450.0" cy="258.7" r="7" fill="#7c3aed" opacity="0.55" filter="url(#gn)"/>
<circle cx="450.0" cy="298.0" r="7" fill="#7c3aed" opacity="0.55" filter="url(#gn)"/>
<circle cx="638.0" cy="62.0" r="7" fill="#6d28d9" opacity="0.55" filter="url(#gn)"/>
<circle cx="638.0" cy="109.2" r="7" fill="#6d28d9" opacity="0.55" filter="url(#gn)"/>
<circle cx="638.0" cy="156.4" r="7" fill="#6d28d9" opacity="0.55" filter="url(#gn)"/>
<circle cx="638.0" cy="203.6" r="16" fill="#6d28d9" opacity="0.12" filter="url(#gh)"/>
<circle cx="638.0" cy="203.6" r="9" fill="#6d28d9" opacity="0.95" filter="url(#gn)"/>
<circle cx="638.0" cy="203.6" r="4" fill="#ffffff" opacity="0.8"/>
<circle cx="638.0" cy="250.8" r="7" fill="#6d28d9" opacity="0.55" filter="url(#gn)"/>
<circle cx="638.0" cy="298.0" r="7" fill="#6d28d9" opacity="0.55" filter="url(#gn)"/>
<circle cx="800.0" cy="62.0" r="7" fill="#22d3ee" opacity="0.55" filter="url(#gn)"/>
<circle cx="800.0" cy="140.7" r="7" fill="#22d3ee" opacity="0.55" filter="url(#gn)"/>
<circle cx="800.0" cy="219.3" r="16" fill="#22d3ee" opacity="0.12" filter="url(#gh)"/>
<circle cx="800.0" cy="219.3" r="9" fill="#22d3ee" opacity="0.95" filter="url(#gn)"/>
<circle cx="800.0" cy="219.3" r="4" fill="#ffffff" opacity="0.8"/>
<circle cx="800.0" cy="298.0" r="7" fill="#22d3ee" opacity="0.55" filter="url(#gn)"/>
<text x="84" y="66" font-family="'Segoe UI', system-ui, sans-serif" font-size="10.5" fill="#c4b5fd" text-anchor="end" opacity="0.8">Voice</text>
<text x="84" y="125" font-family="'Segoe UI', system-ui, sans-serif" font-size="10.5" fill="#c4b5fd" text-anchor="end" opacity="0.8">Text</text>
<text x="84" y="184" font-family="'Segoe UI', system-ui, sans-serif" font-size="10.5" fill="#c4b5fd" text-anchor="end" opacity="0.8">Vision</text>
<text x="84" y="243" font-family="'Segoe UI', system-ui, sans-serif" font-size="10.5" fill="#c4b5fd" text-anchor="end" opacity="0.8">Memory</text>
<text x="84" y="302" font-family="'Segoe UI', system-ui, sans-serif" font-size="10.5" fill="#c4b5fd" text-anchor="end" opacity="0.8">Context</text>
<text x="816" y="66" font-family="'Segoe UI', system-ui, sans-serif" font-size="10.5" fill="#67e8f9" text-anchor="start" opacity="0.8">Recall</text>
<text x="816" y="145" font-family="'Segoe UI', system-ui, sans-serif" font-size="10.5" fill="#67e8f9" text-anchor="start" opacity="0.8">Reason</text>
<text x="816" y="223" font-family="'Segoe UI', system-ui, sans-serif" font-size="10.5" fill="#67e8f9" text-anchor="start" opacity="0.8">Encode</text>
<text x="816" y="302" font-family="'Segoe UI', system-ui, sans-serif" font-size="10.5" fill="#67e8f9" text-anchor="start" opacity="0.8">Respond</text>
<text x="100" y="330" font-family="'Segoe UI', system-ui, sans-serif" font-size="9" fill="#374151" text-anchor="middle" letter-spacing="1">5 neurons</text>
<text x="262" y="330" font-family="'Segoe UI', system-ui, sans-serif" font-size="9" fill="#374151" text-anchor="middle" letter-spacing="1">6 neurons</text>
<text x="450" y="330" font-family="'Segoe UI', system-ui, sans-serif" font-size="9" fill="#374151" text-anchor="middle" letter-spacing="1">7 neurons</text>
<text x="638" y="330" font-family="'Segoe UI', system-ui, sans-serif" font-size="9" fill="#374151" text-anchor="middle" letter-spacing="1">6 neurons</text>
<text x="800" y="330" font-family="'Segoe UI', system-ui, sans-serif" font-size="9" fill="#374151" text-anchor="middle" letter-spacing="1">4 neurons</text>
</svg>
